<svg id="Layer_1" data-name="Layer 1" xmlns="http://www.w3.org/2000/svg" viewBox="0 0 464.13 605.75"><defs><style>.cls-1{fill:#dfe7ea;}.cls-2{fill:#f0d7c2;}.cls-3{fill:#d7ad8c;}.cls-4{fill:#c4987a;}.cls-5{fill:#231f20;}.cls-6{fill:#ebcbac;}.cls-13,.cls-7,.cls-8{fill:none;stroke:#42565e;stroke-miterlimit:10;}.cls-7{stroke-linecap:round;}.cls-7,.cls-8{stroke-width:10px;}.cls-8{stroke-linecap:square;}.cls-9{fill:#dcb79b;}.cls-10{fill:#fff;}.cls-11{fill:#40565a;}.cls-12{fill:#485d63;}.cls-13{stroke-width:11px;}.cls-14{fill:#325560;}</style></defs><title>personal-picture</title><g id="Layer_1-2" data-name="Layer 1-2"><ellipse class="cls-1" cx="236.83" cy="551.53" rx="184.33" ry="54.22"/><path class="cls-2" d="M29.76,280.63a69.67,69.67,0,0,0-8.55,93.09c4.48,6,10.06,11.3,16.89,14.32s15,3.46,21.65,0" transform="translate(0.49 -4.72)"/><path class="cls-3" d="M17.52,371.22c3.62,6.7,8.36,12.95,14.66,17.24,2.69,1.84,7,1.57,11.13,1.27-5.9-4.26-10.4-10.26-13.86-16.68C13.8,344.05,20.1,304.91,44,282.3H68.28v-1.84H32.1C8.16,303.09,1.86,342.24,17.52,371.22Z" transform="translate(0.49 -4.72)"/><path class="cls-3" d="M418.52,279.72a69.66,69.66,0,0,1,29.75,88.61c-3,6.84-7.19,13.32-13.14,17.82s-13.82,6.82-21.06,5" transform="translate(0.49 -4.72)"/><path class="cls-4" d="M410.94,391.48a29.59,29.59,0,0,0,19.15-4.19c6.72-4,11.79-10.17,15.61-16.77a67.56,67.56,0,0,0,7.29-49.8c-4.12-16.58-18.64-31.49-33.49-41l-1,13.49c7.89,8.45,16.35,18.74,19.1,29.76a67.55,67.55,0,0,1-7.29,49.78c-3.82,6.6-8.9,12.74-15.61,16.77A30.46,30.46,0,0,1,410.94,391.48Z" transform="translate(0.49 -4.72)"/><path d="M451.88,123.18c-8.78-30.07-32.4-57-62.92-63.67a46.71,46.71,0,0,0-9.71-17.86c-5.41-6.13-12.35-10.72-19.61-14.48-36.17-18.7-79.26-17-119.65-11.85-16.15,2.07-32.27,4.63-48,8.91C127.86,41.72,72.52,89.1,45.43,149.81S23.18,283.35,53,342.81L261.88,190.63V339.07H414.22c-8.85-26.74-4.64-73.12,7.76-98.72,9.21-19,22.61-32.09,28.47-53.07C456.52,165.66,458.24,145,451.88,123.18Z" transform="translate(0.49 -4.72)"/><path class="cls-5" d="M454.17,191.09c-2.65,9.63-6.93,17.51-11.65,25.12-.82-48.6-11-97.83-36.11-139.38a91.64,91.64,0,0,0-8.48-12.11c28,8.43,49.4,34,57.66,62.31C462,148.82,460.21,169.47,454.17,191.09Z" transform="translate(0.49 -4.72)"/><path class="cls-6" d="M53.21,335.94c15.1-11.09,21.39-30.36,26.05-48.51A691.19,691.19,0,0,0,98.68,172.08l91,27.16c10,3,20.12,6,30.54,6.38,26.17,1,49.73-14.31,74.25-23.5a165.1,165.1,0,0,1,75-9.53s7.5,121.7,48.83,164.47c.81,73-43.54,137.46-92.3,191.78-11.27,12.55-23,25.08-37.55,33.62l-.21.12a72.59,72.59,0,0,1-36.5,10.2l-29.86.15A71.76,71.76,0,0,1,185.2,563l-1-.56c-14.55-8.54-26.28-21.06-37.55-33.62C98,474.52,51.52,410.05,52.3,337.06" transform="translate(0.49 -4.72)"/><path class="cls-2" d="M145.7,533c-48.31-54-94-118-93.24-190.45l.91-1.13c15.09-11.09,21.39-30.36,26-48.51A690.13,690.13,0,0,0,98.83,177.6L127,186C118,227.54,82.52,413.91,145.7,533Z" transform="translate(0.49 -4.72)"/><path class="cls-3" d="M323,530.07a270.43,270.43,0,0,1-19.2,19.85c22.46-40.14,35.38-85.8,40-131.73,6.33-63.1-2.24-126.93-17.2-188.56-.55-2.26-1.17-4.63-2.75-6.34-2.47-2.67-6.5-3-10.13-3.13-20.76-.84-41.76-1.81-61.63-7.87a105.51,105.51,0,0,1-17.44-7c19.43-4.07,37.77-14.78,56.7-21.88a165.07,165.07,0,0,1,75.14-9.59S374,295.51,415.35,338.28C416.13,411.28,371.78,475.72,323,530.07Z" transform="translate(0.49 -4.72)"/><path class="cls-7" d="M390.09,59.17c31.3,6,55.6,33.41,64.53,64,6.37,21.82,4.61,42.47-1.43,64.1-5.86,21-19.26,34.06-28.47,53.07-12.4,25.6-14.78,71.07-5.93,97.81" transform="translate(0.49 -4.72)"/><path class="cls-7" d="M27,280.63a69.68,69.68,0,0,0-8.56,93.09c4.48,6,10.06,11.3,16.89,14.32s15,3.46,21.65,0" transform="translate(0.49 -4.72)"/><path class="cls-7" d="M421.9,279.1a69.65,69.65,0,0,1,29.75,88.62c-3,6.84-7.19,13.32-13.14,17.82s-13.82,6.82-21.06,5" transform="translate(0.49 -4.72)"/><polygon class="cls-3" points="237.19 353.31 237.19 432.24 264.73 432.24 237.19 353.31"/><polyline class="cls-8" points="237.34 357.44 236.21 423.51 236.13 428.1"/><path class="cls-9" d="M343.79,313.3c.57,5-.41,9-1.09,8.93s-.9-4-1.45-8.65-1.2-8.52-.51-8.75S343.23,308.3,343.79,313.3Z" transform="translate(0.49 -4.72)"/><path class="cls-10" d="M160.12,209.47A108.45,108.45,0,0,1,182.37,217c5.49,2.71,8.48,5.28,8,6.57s-4.34,1.18-10.15.31-13.7-2.41-22.45-4.49a145.28,145.28,0,0,1-22.25-6.87c-5.57-2.38-8.76-4.67-8.36-6s4.24-1.55,10.15-1A174.58,174.58,0,0,1,160.12,209.47Z" transform="translate(0.49 -4.72)"/><path class="cls-11" d="M396.82,132.9a75,75,0,0,1,1.9,14c0,2.17.07,4.23-.09,6.16-.07,1-.1,1.89-.21,2.78l-.35,2.55c-1,6.48-2.82,10.19-3.8,10s-1.24-4.15-1.61-10.27l-.14-2.4c0-.83-.16-1.7-.23-2.59-.11-1.78-.38-3.68-.6-5.67-.54-4-1.27-8.29-2.32-12.78a128.07,128.07,0,0,0-3.69-12.45c-.71-1.87-1.32-3.68-2-5.33-.34-.83-.63-1.65-1-2.41l-.95-2.21c-2.43-5.63-4.08-9.23-3.19-9.9s4,1.91,7.9,7.22l1.46,2.11c.5.74,1,1.55,1.44,2.38,1,1.65,1.9,3.5,2.85,5.46A74.78,74.78,0,0,1,396.82,132.9Z" transform="translate(0.49 -4.72)"/><path class="cls-11" d="M434.65,123a107.91,107.91,0,0,1-2.34,18.33c-.67,2.76-1.29,5.39-2.1,7.78-.39,1.2-.73,2.37-1.14,3.46l-1.22,3.18a54,54,0,0,1-2.41,5.25c-.39.76-.74,1.46-1.11,2.09s-.74,1.19-1.08,1.69c-1.34,2-2.3,3-2.79,2.77-1-.47.38-5.47,2.21-13.44l.71-3.13c.25-1.08.43-2.23.67-3.4.51-2.34.86-4.87,1.31-7.51A170.78,170.78,0,0,0,427,122.72a171,171,0,0,0-.37-17.39c-.26-2.66-.43-5.21-.77-7.58-.16-1.18-.25-2.34-.42-3.44L425,91.14c-1.25-8.08-2.3-13.17-1.24-13.56.5-.18,1.38.87,2.58,3,.3.52.64,1.11,1,1.76s.62,1.38,1,2.17a53.88,53.88,0,0,1,2,5.41l1,3.21c.33,1.12.59,2.31.89,3.54.64,2.45,1.06,5.11,1.53,7.91A108.69,108.69,0,0,1,434.65,123Z" transform="translate(0.49 -4.72)"/><path class="cls-11" d="M406.52,242.59a61.13,61.13,0,0,1,3-13.43,51.83,51.83,0,0,1,2.35-5.53c.43-.84.8-1.66,1.25-2.41l1.31-2.14A30.81,30.81,0,0,1,417,215.6c.4-.49.77-.95,1.14-1.34a10.69,10.69,0,0,1,1.09-1c1.35-1.2,2.28-1.69,2.71-1.38.91.66-.62,4.15-2.6,9.64l-.77,2.16c-.27.75-.48,1.55-.74,2.36-.56,1.61-1,3.38-1.49,5.21a84,84,0,0,0-2.48,24.47c.13,1.9.18,3.72.4,5.4.1.85.14,1.68.25,2.46l.32,2.27c.83,5.79,1.62,9.51.59,10-.48.21-1.3-.46-2.37-1.9-.26-.36-.55-.77-.85-1.23s-.55-1-.84-1.54a30.59,30.59,0,0,1-1.79-4l-.85-2.36c-.28-.83-.48-1.71-.73-2.61a53.84,53.84,0,0,1-1.18-5.89A61.57,61.57,0,0,1,406.52,242.59Z" transform="translate(0.49 -4.72)"/><path class="cls-5" d="M337.58,15.72a504.34,504.34,0,0,0-65.52,7.53c-9.44,1.72-18.9,3.72-27.78,7.32-7.63,3.15-14.76,7.37-22.49,10.23l-1,.35c-15.13,5.37-33.2,6.48-43.21,19l1.75-3.43c.88-1.69,1.74-3.38,2.6-5.07a64.62,64.62,0,0,0-39.5,17c-.84.79-1.73,1.54-2.63,2.27-9,7.24-20.27,11.3-28.87,19.81-.3-2.88-.59-5.77-.89-8.65q-2,1.23-3.94,2.52c-9.37,6.19-18,13.53-24.81,22.49C74,116.79,69,128.49,68.4,140.61A2.72,2.72,0,0,0,67.12,139l-.65,1a164.9,164.9,0,0,0-25.72,75.23c-.92-3-1.85-6.08-2.77-9.1-.08,1.17-.16,2.37-.21,3.63a304.83,304.83,0,0,0,3.3,57.5,58.12,58.12,0,0,1-13.19-23.61,221.31,221.31,0,0,1,5.31-59.68A201,201,0,0,1,45.52,147.2a217.92,217.92,0,0,1,18.72-33.54,53.57,53.57,0,0,1,2.12-8.94,231.64,231.64,0,0,1,78.78-67.78,148,148,0,0,0-11.25,10,222.88,222.88,0,0,1,44.63-21.15q6.69-2.31,13.52-4.18a309.19,309.19,0,0,1,36.29-7.31c3.89-.58,7.79-1.1,11.68-1.61,10.4-1.34,21-2.43,31.56-3C294.05,8.47,316.52,9.57,337.58,15.72Z" transform="translate(0.49 -4.72)"/><path class="cls-7" d="M50.38,340.64c-29.86-59.43-34.67-132.26-7.56-193S125.25,39.56,189.41,22.09c15.71-4.28,31.83-6.84,48-8.91C277.8,8,320.89,6.33,357.06,25c7.26,3.75,14.2,8.35,19.61,14.48,11.64,13.21,14.85,33,8.85,49.61s-20.53,29.56-37.4,34.67" transform="translate(0.49 -4.72)"/><path class="cls-11" d="M119,60.43a122.5,122.5,0,0,1,11.37-12.29c1.91-1.73,3.71-3.37,5.52-4.79s3.48-2.72,5.07-3.83c6.39-4.44,10.89-6.3,11.46-5.47C153.67,35.9,139,47.45,125,65.21c-14.22,17.62-22.25,34.51-24.34,33.64-.93-.38-.12-5.17,2.8-12.39.74-1.8,1.58-3.75,2.62-5.79s2.18-4.19,3.45-6.44A120.85,120.85,0,0,1,119,60.43Z" transform="translate(0.49 -4.72)"/><path class="cls-11" d="M152.44,49.46A156.1,156.1,0,0,1,165,36.09c2.09-1.91,4.07-3.71,6-5.29s3.78-3,5.5-4.29c6.91-5,11.74-7.28,12.34-6.46,1.32,1.81-14.6,14.92-30.58,34.31s-26.07,37.36-28.09,36.36c-.91-.44.42-5.6,4.09-13.32.92-1.92,2-4,3.21-6.2s2.61-4.49,4.1-6.89A156.1,156.1,0,0,1,152.44,49.46Z" transform="translate(0.49 -4.72)"/><path class="cls-11" d="M192.52,36.83a87.94,87.94,0,0,1,14.89-12.4,78.82,78.82,0,0,1,14-7.35c8.37-3.31,14-3.82,14.24-2.87s-4.55,3.39-11.85,7.73A121.51,121.51,0,0,0,198,42.17C189.1,51.4,182.15,61,176.88,67.9S168.1,79,167.18,78.41s1-5.67,5.14-13.44A127.78,127.78,0,0,1,192.52,36.83Z" transform="translate(0.49 -4.72)"/><path class="cls-11" d="M245.77,20a100.59,100.59,0,0,1,16.75-8.18,76.88,76.88,0,0,1,14.74-4c8.63-1.37,14-.51,14.08.47s-5,2.2-12.8,4.79a141.31,141.31,0,0,0-28.82,13.45C239.05,33.06,230,40.08,223.29,45.09s-11.06,8-11.8,7.22,2.32-5.1,8.21-11.27A131.17,131.17,0,0,1,245.77,20Z" transform="translate(0.49 -4.72)"/><path class="cls-11" d="M37.91,197.18A123.06,123.06,0,0,0,41,211c.66,2.07,1.22,4.08,1.91,5.9.33.91.6,1.82.94,2.67l.95,2.43c2.44,6.21,4.26,10.1,3.34,10.76-.43.31-1.43-.29-2.9-1.67-.36-.35-.76-.74-1.19-1.18s-.81-1-1.26-1.52A41.58,41.58,0,0,1,40,224.45l-1.45-2.39c-.5-.84-.94-1.75-1.43-2.68q-1.53-3-2.76-6.13A71.71,71.71,0,0,1,29.67,183a65.07,65.07,0,0,1,.79-6.68c.19-1,.33-2,.56-3l.69-2.72a40,40,0,0,1,1.5-4.57c.26-.66.49-1.27.74-1.83s.53-1,.78-1.48c1-1.76,1.76-2.63,2.26-2.47,1.07.35.52,4.61,0,11.26l-.17,2.61c-.06.9,0,1.85-.09,2.82-.11,1.94,0,4,0,6.2A120.88,120.88,0,0,0,37.91,197.18Z" transform="translate(0.49 -4.72)"/><path class="cls-11" d="M35.58,255.47A98.38,98.38,0,0,0,40.7,264c.9,1.25,1.71,2.48,2.56,3.55.42.55.8,1.1,1.2,1.6l1.16,1.45c3,3.71,5,6.11,4.35,7s-3.77,0-8.06-3.08l-1.65-1.24c-.57-.44-1.1-1-1.68-1.47a44.21,44.21,0,0,1-3.46-3.52,47.77,47.77,0,0,1-10.33-19.94,44.42,44.42,0,0,1-.88-4.85c-.09-.77-.19-1.5-.23-2.22s0-1.4-.06-2.06c0-5.26,1.13-8.39,2.13-8.36s1.91,3,3.23,7.61l.52,1.78c.18.62.41,1.25.62,1.91.38,1.32.92,2.69,1.42,4.14A98.29,98.29,0,0,0,35.58,255.47Z" transform="translate(0.49 -4.72)"/><path class="cls-11" d="M67.45,128.37q.38,4.69,1.22,9.35c.31,1.43.54,2.81.87,4.07.16.64.27,1.27.43,1.86l.44,1.71c1.13,4.37,1.93,7.26,1,7.85s-3.35-1.43-6-5.72l-1-1.71c-.33-.6-.61-1.25-.92-1.92a41,41,0,0,1-1.7-4.39,45.61,45.61,0,0,1-1.49-21.39,39.57,39.57,0,0,1,1.08-4.58c.22-.71.4-1.39.64-2l.73-1.83c2-4.61,4.21-6.91,5.12-6.49s.62,3.42.11,7.91l-.2,1.76c-.07.61-.1,1.25-.17,1.9-.15,1.3-.19,2.7-.3,4.16C67.2,122.06,67.25,125.22,67.45,128.37Z" transform="translate(0.49 -4.72)"/><path class="cls-5" d="M355.18,179a165,165,0,0,0-59.78,10.43c-10.63,4-21.07,9.1-31.63,13.56V198.9l-12.08,8.82a107.16,107.16,0,0,1-14.22,3.9c-1.55.3-3.11.56-4.69.78a69.65,69.65,0,0,1-11.64.58c-10.43-.39-20.55-3.4-30.53-6.38l-56.29-16.8-14.54-4.34-20.14-6q-2.74,33.38-8.73,66.39-4.32,24-10.39,47.69c-.1.41-.21.82-.31,1.23-4.66,18.14-10.95,37.42-26,48.5l-.92,1.13v3.36q-3.07-6.33-5.77-12.84c11.22-9.15,18.92-22.41,22.74-36.44,4.32-15.88,4-32.73,1.4-49a1.5,1.5,0,0,0,1.43.57c1.44-.21,3-2.36,3.4-4.18a188.67,188.67,0,0,0,4.36-49.24c0-.66-.06-1.31-.09-2L84,198c6-11.47,4.25-31.47,6.3-44.25,13.89,12.88,48.77,13.2,66.08,5.51-4.33,3.77-5,12.86-10.1,15.6,1.53,0-8.28,5-6.75,4.94a129.79,129.79,0,0,0,65.78-21.6c-5.24,11-14.41,26.68-26,30.42,1.69.36,2.65-6.32,4.34-6q12.48,2.5,25.09,4.17c12.06,1.61,24.59,2.62,36.17-1.11,14.49-4.66,25.64-16.08,36.16-27.09a47.14,47.14,0,0,1-.35,5.8,65.64,65.64,0,0,1-5,19.31l32.61-13.88c.05.5.09,1,.12,1.51a27,27,0,0,1-3.55,14.74q25.16-11.81,49.59-25A27.69,27.69,0,0,1,355.18,179Z" transform="translate(0.49 -4.72)"/><path class="cls-5" d="M411.26,323.93c-8.3-10.85-15.05-25-20.53-40.32-.08-.22-.16-.44-.23-.65-11.25-33.09-16.84-70.92-19.39-93.54,10.71,26.93,25,59.59,39.5,85.45h0C408.4,291.77,408.44,309.53,411.26,323.93Z" transform="translate(0.49 -4.72)"/><path class="cls-12" d="M269.15,181.42c24.26-13.66,43.82-25.11,45.05-23.33s-16.68,16.14-41.28,30-46.18,21.74-47,19.86S244.92,195.14,269.15,181.42Z" transform="translate(0.49 -4.72)"/><path class="cls-12" d="M256.7,178.37c4.41-4.6,8.39-9.18,11.9-13.46,1.71-2.18,3.38-4.21,4.84-6.2.74-1,1.49-1.92,2.16-2.85l1.94-2.68c4.93-6.84,8-11.24,9-10.75s-.41,5.73-4.33,13.56l-1.59,3c-.56,1-1.22,2.11-1.87,3.22-1.28,2.24-2.84,4.51-4.47,6.91a122,122,0,0,1-26.14,27c-2.34,1.71-4.56,3.34-6.75,4.7-1.09.69-2.12,1.38-3.15,2l-3,1.69c-7.7,4.18-13,5.67-13.41,4.78s3.78-4.16,10.45-9.32l2.61-2c.91-.7,1.81-1.48,2.78-2.25,1.94-1.52,3.92-3.26,6-5C247.8,187.06,252.25,182.94,256.7,178.37Z" transform="translate(0.49 -4.72)"/><path class="cls-11" d="M167,175.23a128.88,128.88,0,0,0,20.86-7.38c3-1.53,6-2.88,8.6-4.48,1.31-.77,2.63-1.44,3.82-2.21l3.41-2.23c2.24-1.34,4.06-2.84,5.78-4,.84-.61,1.67-1.15,2.38-1.68s1.35-1.06,1.94-1.5c2.38-1.77,3.91-2.61,4.3-2.26s-.39,1.87-2.19,4.37c-.45.62-1,1.28-1.54,2s-1.3,1.44-2,2.23a56.26,56.26,0,0,1-5.34,5.13L203.65,166c-1.17.95-2.49,1.79-3.81,2.73a90.36,90.36,0,0,1-8.83,5.42,104.12,104.12,0,0,1-22.17,8.5,104.52,104.52,0,0,1-23.57,2.85,89.43,89.43,0,0,1-10.34-.66c-1.61-.22-3.17-.34-4.64-.63l-4.23-.9a57,57,0,0,1-7.12-2c-1-.36-2-.66-2.85-1s-1.63-.75-2.32-1.09c-2.76-1.36-4.16-2.34-4-2.84s1.92-.47,4.86,0c.73.11,1.54.26,2.42.42s1.86.23,2.89.37c2.07.25,4.38.72,7,.86l4.06.38c1.41.13,2.89.1,4.41.17,3,.2,6.29,0,9.69-.06A127.8,127.8,0,0,0,167,175.23Z" transform="translate(0.49 -4.72)"/><path class="cls-11" d="M132.29,169.72a103.8,103.8,0,0,0,11.59-5.33c1.7-1,3.36-1.87,4.83-2.84.74-.47,1.49-.89,2.17-1.36l2-1.33c5-3.41,8.07-5.83,8.93-5.11.4.34.13,1.39-.74,3-.22.4-.47.85-.76,1.34s-.67.95-1.06,1.47a31.56,31.56,0,0,1-2.84,3.38l-1.89,1.78c-.64.63-1.36,1.21-2.09,1.85a54.4,54.4,0,0,1-4.91,3.75,60.57,60.57,0,0,1-26.34,9.87,55.07,55.07,0,0,1-6.16.4h-2.79l-2.57-.2a34.05,34.05,0,0,1-4.36-.68c-.64-.14-1.23-.26-1.76-.41s-1-.34-1.45-.5c-1.73-.66-2.62-1.27-2.54-1.8.17-1.11,4.09-1.32,10.09-2l2.35-.29c.81-.1,1.65-.27,2.52-.4,1.74-.23,3.58-.66,5.51-1A102.58,102.58,0,0,0,132.29,169.72Z" transform="translate(0.49 -4.72)"/><path class="cls-11" d="M71.78,257.72c-3.94-18.19-10.05-32.28-8.1-33.34.9-.48,3.66,2.5,6.83,8.12.79,1.41,1.62,3,2.4,4.69s1.61,3.53,2.36,5.53a99.28,99.28,0,0,1,4,13.3,97.7,97.7,0,0,1,2,13.73c.12,2.13.24,4.15.2,6.05s-.07,3.66-.19,5.27c-.5,6.44-1.74,10.3-2.76,10.25C76.3,291.21,75.89,275.85,71.78,257.72Z" transform="translate(0.49 -4.72)"/><path class="cls-11" d="M82.16,215.24c-.93-5.11-1.91-9.93-2.87-14.31-.52-2.17-1-4.26-1.47-6.19l-.69-2.81-.68-2.58c-1.72-6.58-2.86-10.76-1.87-11.26s3.8,3,6.94,9.37L82.71,190c.4.89.76,1.83,1.15,2.8.8,1.94,1.5,4.06,2.24,6.29a125,125,0,0,1,3.6,14.79,155.86,155.86,0,0,1,2.4,27.28c0,7-.65,11.34-1.7,11.43s-2.36-4.11-3.69-10.92S84,225.46,82.16,215.24Z" transform="translate(0.49 -4.72)"/><path class="cls-11" d="M343.61,159.26c1.54-2,2.91-4,4.14-5.82.58-.94,1.18-1.81,1.68-2.67s1-1.65,1.46-2.38c1.79-2.95,3.1-4.91,4.17-4.69s1.56,2.67.92,6.54a22.18,22.18,0,0,1-.74,3.1,28.39,28.39,0,0,1-1.27,3.44,34.52,34.52,0,0,1-10.25,13.14,29.57,29.57,0,0,1-3,2.07,22.36,22.36,0,0,1-2.83,1.48c-3.59,1.57-6.13,1.62-6.56.71s1.11-2.74,3.53-5.19c.6-.62,1.27-1.27,2-2s1.41-1.49,2.18-2.28C340.46,163.06,342,161.25,343.61,159.26Z" transform="translate(0.49 -4.72)"/><path class="cls-7" d="M53.36,338.09C68.47,327,74.75,307.72,79.42,289.58A691.17,691.17,0,0,0,98.83,174.23l91,27.16c10,3,20.12,6,30.54,6.38,26.17,1,49.73-14.31,74.25-23.5a165,165,0,0,1,75.09-9.55s7.5,121.7,48.83,164.47c.81,73-43.54,137.46-92.3,191.78-11.27,12.55-23,25.08-37.55,33.62l-.17.13a72.59,72.59,0,0,1-36.5,10.2l-29.86.15a71.76,71.76,0,0,1-36.73-9.91l-1-.56c-14.55-8.54-26.28-21.06-37.55-33.62C98.14,476.72,51.64,412.2,52.45,339.21" transform="translate(0.49 -4.72)"/><path class="cls-5" d="M366.31,87.72c3.56-9.19,4.7-18.51,5.61-25.39S373.59,51,375,50.83s3.15,4.16,4.11,11.49a62.84,62.84,0,0,1,.29,13.08,57.16,57.16,0,0,1-3.61,16A46.16,46.16,0,0,1,367,105.72a36.83,36.83,0,0,1-11,8.3,23,23,0,0,1-8.9,2.45c-2.21.06-3.45-.39-3.59-1.06-.32-1.48,3.72-3.27,8.61-7.49a48.7,48.7,0,0,0,7.65-8.2A53.69,53.69,0,0,0,366.31,87.72Z" transform="translate(0.49 -4.72)"/><path class="cls-5" d="M393.24,87.2c.87-4.87,1.17-9.75,1.81-13.49s1.62-6.21,3-6.35,2.93,2,4.17,5.79a32.36,32.36,0,0,1,1.39,6.9,33.51,33.51,0,0,1-.35,9,27,27,0,0,1-3.21,8.81,20.24,20.24,0,0,1-5.08,5.9,11.18,11.18,0,0,1-4.8,2.28c-1.31.2-2.17-.08-2.53-.67-.73-1.26.54-3.35,1.86-6.32A48.92,48.92,0,0,0,393.24,87.2Z" transform="translate(0.49 -4.72)"/><path class="cls-5" d="M363,121.05c3.72-2.45,7.13-4.62,9.92-6.06s5-2.06,6-1.12.74,3.29-1,6.3a32.11,32.11,0,0,1-21.71,14.25c-3.46.41-5.77-.25-6.18-1.58s1-3.12,3.44-5.1S359.29,123.49,363,121.05Z" transform="translate(0.49 -4.72)"/><path class="cls-5" d="M404.77,206.72a22.93,22.93,0,0,1,7.56-8.1c2.52-1.51,4.63-1.74,5.6-.75s.76,3-.12,5.45a73.51,73.51,0,0,1-9.46,16.39c-1.67,2-3.28,3.19-4.65,2.83s-2.2-2.28-2.16-5.22A22.81,22.81,0,0,1,404.77,206.72Z" transform="translate(0.49 -4.72)"/><path class="cls-10" d="M45.57,168.2a38.79,38.79,0,0,1,3.68-7.13,28.39,28.39,0,0,1,4.21-5c2.78-2.58,5.19-3.49,6.27-2.63s.8,3.3-.21,6.55-2.66,7.39-4.44,12-3.35,8.72-4.8,11.81-2.84,5.08-4.27,5-2.54-2.4-2.85-6.18a28.79,28.79,0,0,1,.3-6.56A39.5,39.5,0,0,1,45.57,168.2Z" transform="translate(0.49 -4.72)"/><path class="cls-10" d="M77,113.93a11.47,11.47,0,0,1,6.45-3c2-.16,3.51.49,4.17,1.73a4.88,4.88,0,0,1-.29,4.37,16,16,0,0,1-8.4,7.53,4.91,4.91,0,0,1-4.37-.18c-1.16-.79-1.64-2.38-1.27-4.33A11.53,11.53,0,0,1,77,113.93Z" transform="translate(0.49 -4.72)"/><ellipse class="cls-10" cx="210.08" cy="226.36" rx="5.11" ry="8.76" transform="translate(-27.61 418.22) rotate(-86.67)"/><path class="cls-8" d="M224.3,447.51h22.94" transform="translate(0.49 -4.72)"/><path class="cls-8" d="M20.39,344.72a35.54,35.54,0,0,1,21.13-23.21" transform="translate(0.49 -4.72)"/><path class="cls-8" d="M441.71,344.72a35.51,35.51,0,0,0-21.19-23.21" transform="translate(0.49 -4.72)"/><path class="cls-10" d="M36.23,364a58.73,58.73,0,0,1,4.48,7.36c1.06,2.29,1.34,4.25.37,5.29s-2.92,1-5.37-.08a19.47,19.47,0,0,1-8-6.91c-2.49-3.68-3.38-8-2.81-11.09a7.05,7.05,0,0,1,1.47-3.46,2.38,2.38,0,0,1,2.07-.95c1.42.21,2.44,1.71,3.61,3.43S34.57,361.47,36.23,364Z" transform="translate(0.49 -4.72)"/><path class="cls-3" d="M306.26,285.87a53.34,53.34,0,0,0-19.38,5.9c-4.86,2.45-8,4.52-9.27,3.52-.59-.47-.59-1.67.1-3.41a20.83,20.83,0,0,1,4.39-6.38,32.85,32.85,0,0,1,4-3.56,36.71,36.71,0,0,1,5.31-3.26,38,38,0,0,1,28.15-2.45,36.5,36.5,0,0,1,5.79,2.29,31.72,31.72,0,0,1,4.6,2.8,20.66,20.66,0,0,1,5.43,5.52c1,1.6,1.18,2.78.69,3.34-1.07,1.2-4.53-.29-9.74-1.86A53.3,53.3,0,0,0,306.26,285.87Z" transform="translate(0.49 -4.72)"/><path class="cls-8" d="M341.92,285.08a49.36,49.36,0,0,0-69.65,4.8c-.39.45-.77.9-1.15,1.37" transform="translate(0.49 -4.72)"/><path class="cls-13" d="M263.64,328.2c12.85-5.69,25.89-11.31,39.71-13.84s28.68-1.72,41.06,4.94" transform="translate(0.49 -4.72)"/><path class="cls-14" d="M325.72,325.9a17.9,17.9,0,0,1-35.79,0c0-9.88,8-13.77,17.9-13.77S325.72,316,325.72,325.9Z" transform="translate(0.49 -4.72)"/><path class="cls-3" d="M166.88,285.87a53.23,53.23,0,0,1,19.38,5.9c4.86,2.45,8,4.52,9.27,3.52.59-.47.59-1.67-.1-3.41A20.66,20.66,0,0,0,191,285.5a31.42,31.42,0,0,0-4-3.56,35.66,35.66,0,0,0-5.31-3.26,38.09,38.09,0,0,0-28.21-2.45,36.88,36.88,0,0,0-5.79,2.29,32.84,32.84,0,0,0-4.6,2.8,20.66,20.66,0,0,0-5.43,5.52c-1,1.6-1.18,2.78-.69,3.34,1.07,1.2,4.53-.29,9.74-1.86A53.24,53.24,0,0,1,166.88,285.87Z" transform="translate(0.49 -4.72)"/><path class="cls-8" d="M131.21,285.08a49.38,49.38,0,0,1,69.66,4.8c.39.45.77.9,1.14,1.37" transform="translate(0.49 -4.72)"/><path class="cls-13" d="M209.52,328.2c-12.85-5.69-25.89-11.31-39.71-13.84s-28.68-1.72-41.06,4.94" transform="translate(0.49 -4.72)"/><path class="cls-14" d="M147.42,325.9a17.9,17.9,0,0,0,35.79,0c0-9.88-8-13.77-17.9-13.77S147.42,316,147.42,325.9Z" transform="translate(0.49 -4.72)"/><path class="cls-8" d="M204.48,493.1a59.29,59.29,0,0,0,27.12,13.69c14,2.93,30.81-.59,38.14-12.94" transform="translate(0.49 -4.72)"/><circle class="cls-2" cx="236.69" cy="533.35" r="10.55" transform="translate(-332.67 403.14) rotate(-53.65)"/></g></svg>